<?xml version="1.0" standalone="no"?>
<!DOCTYPE svg PUBLIC "-//W3C//DTD SVG 20010904//EN"
 "http://www.w3.org/TR/2001/REC-SVG-20010904/DTD/svg10.dtd">
<svg version="1.0"
        xmlns="http://www.w3.org/2000/svg" width="616.000000pt" height="672.000000pt" viewBox="0 0 616.000000 672.000000" preserveAspectRatio="xMidYMid meet">

        <g transform="translate(0.000000,672.000000) scale(0.100000,-0.100000)" fill="#000000" stroke="none">
                <circle cx="3080" cy="3360" r="2500" fill="none" stroke="#006E1D" stroke-width="100"/>

                <path fill="#006E1D" d="M3050 5505 c-18 -48 -12 -215 11 -291 12 -38 28 -74 35 -80 8 -6 14
-21 14 -34 0 -12 16 -54 36 -93 38 -74 38 -74 16 -192 -10 -53 -50 -204 -58
-216 -2 -4 -19 -9 -36 -11 l-33 -3 42 88 c24 48 43 99 43 112 0 13 5 27 10 30
15 10 12 122 -5 153 -8 15 -35 47 -59 71 -42 42 -45 49 -56 125 -6 45 -15 117
-18 161 -6 71 -9 80 -27 80 -51 0 -42 -212 15 -324 16 -33 30 -65 30 -70 0 -5
14 -33 32 -61 31 -51 32 -52 19 -111 -7 -34 -18 -75 -25 -92 -8 -18 -24 -57
-37 -87 -12 -30 -28 -61 -34 -68 -7 -7 -48 -14 -110 -17 -165 -7 -285 -56
-285 -115 0 -32 26 -54 95 -82 138 -57 504 -62 810 -11 50 8 107 17 128 20 20
3 40 9 43 14 3 5 18 9 35 9 16 0 29 5 29 12 0 6 3 9 6 5 5 -5 -17 -64 -37 -97
-5 -8 -23 -40 -40 -70 -67 -120 -87 -150 -152 -227 -83 -98 -128 -135 -213
-175 -59 -27 -73 -30 -138 -26 -124 8 -237 81 -361 234 -50 62 -117 154 -145
202 -22 36 -46 50 -61 35 -17 -17 -4 -40 106 -208 61 -93 219 -265 264 -288
14 -7 36 -19 49 -25 12 -7 31 -16 42 -22 11 -5 52 -10 92 -10 141 0 247 47
351 152 53 54 71 67 82 58 19 -16 83 2 161 45 84 47 198 155 259 246 43 62 48
77 53 138 l5 69 -37 17 c-31 15 -42 15 -88 5 -69 -16 -101 -33 -127 -66 -13
-16 -21 -21 -21 -12 0 8 5 19 11 25 34 34 -33 57 -96 33 -100 -38 -437 -69
-690 -64 -178 4 -342 37 -333 67 10 30 136 66 232 67 58 0 59 0 42 -19 -23
-25 -27 -86 -6 -86 8 0 30 24 50 54 32 48 40 54 72 55 l36 1 -14 -34 c-17 -41
-18 -67 -2 -77 15 -10 57 40 65 77 5 25 10 29 40 29 l34 0 -16 -30 c-32 -62
-8 -103 32 -54 13 16 29 40 36 54 14 28 5 28 177 9 166 -18 255 -18 255 1 0
18 -137 44 -288 55 -54 4 -96 10 -95 14 123 234 135 328 53 411 -55 56 -68
111 -63 269 3 99 2 106 -16 106 -48 0 -62 -254 -18 -315 12 -16 22 -39 22 -52
0 -13 12 -43 26 -68 15 -25 26 -58 26 -75 -1 -39 -32 -132 -70 -216 -29 -64
-31 -65 -64 -61 l-34 4 39 111 c34 100 39 124 40 219 l2 107 -35 38 c-63 67
-70 79 -85 137 -15 55 -34 241 -31 301 1 40 -30 47 -44 10z m885 -1125 c16
-17 16 -23 4 -52 -43 -108 -242 -287 -356 -322 -20 -6 -18 0 20 56 23 35 65
112 92 171 36 76 55 107 68 107 9 0 36 14 59 30 48 35 87 38 113 10z"/>
                <path fill="#006E1D" d="M3549 3923 c-23 -26 13 -39 127 -46 142 -9 263 -34 292 -60 12 -11
22 -24 22 -28 0 -4 -20 -29 -45 -57 -43 -48 -117 -91 -230 -136 -97 -38 -280
-45 -550 -21 -459 41 -752 127 -661 195 26 20 84 44 156 66 66 20 90 38 72 56
-13 13 -56 5 -175 -33 -114 -36 -187 -83 -187 -119 0 -37 105 -101 220 -134
92 -26 357 -74 510 -93 292 -35 663 -12 782 48 10 5 23 9 28 9 21 0 140 62
140 73 0 6 3 7 7 3 4 -3 26 13 50 36 56 55 57 83 2 137 -66 65 -213 101 -461
115 -70 4 -89 2 -99 -11z"/>
                <path fill="#006E1D" d="M4440 3605 c-6 -14 -10 -40 -10 -56 0 -16 -4 -37 -9 -47 -5 -9 -14
-51 -21 -92 -30 -203 -50 -293 -79 -365 -30 -71 -59 -120 -89 -146 -31 -27
-36 -29 -55 -16 -12 8 -27 28 -34 46 -12 29 -12 32 9 40 97 38 197 271 143
331 -28 31 -77 26 -120 -12 -60 -52 -90 -127 -114 -285 -14 -92 -116 -239
-179 -258 -32 -9 -62 19 -62 59 0 70 59 218 109 275 l22 25 -3 -45 c-3 -40 -1
-44 20 -47 40 -6 62 24 62 83 0 28 -5 56 -12 63 -18 18 -79 14 -114 -7 -49
-30 -116 -137 -144 -231 -20 -67 -146 -230 -178 -230 -40 0 15 173 91 282 11
17 17 41 15 60 -6 59 -69 47 -144 -26 -36 -36 -144 -172 -144 -181 0 -4 -10
-19 -22 -33 -15 -20 -19 -21 -13 -7 4 11 14 37 22 58 7 22 23 57 34 79 27 53
22 82 -14 86 -31 4 -57 -12 -57 -35 0 -8 -13 -33 -28 -56 -16 -23 -36 -58 -45
-77 -9 -20 -44 -63 -79 -96 -112 -107 -161 -135 -174 -100 -8 21 60 137 133
229 30 38 29 63 -4 84 -16 10 -34 26 -41 35 -21 29 -105 23 -168 -10 -81 -42
-125 -75 -187 -141 -44 -46 -78 -70 -150 -104 -50 -24 -104 -47 -119 -51 -68
-16 -1 74 127 170 28 20 52 41 53 46 2 4 9 8 16 8 7 0 21 9 31 20 40 44 -18
102 -69 70 -12 -8 -33 -20 -47 -27 -15 -7 -32 -20 -39 -28 -7 -8 -18 -15 -24
-15 -7 0 -30 -18 -51 -40 -21 -22 -43 -40 -47 -40 -5 0 -38 -18 -74 -40 -36
-22 -88 -46 -115 -54 -45 -14 -49 -14 -49 2 0 34 145 172 223 212 57 30 69 56
37 82 -37 30 -36 31 -191 -73 -46 -30 -96 -63 -111 -72 -30 -19 -37 -44 -14
-53 12 -5 12 -10 0 -39 -31 -75 -8 -125 57 -125 37 0 127 30 165 55 32 21 33
20 21 -25 -10 -36 -9 -42 13 -65 38 -40 100 -35 202 18 l83 42 -4 -42 c-3 -38
1 -47 29 -73 21 -19 43 -30 61 -30 41 0 101 33 147 80 l38 40 2 -38 c3 -42 39
-82 75 -82 32 1 98 33 139 69 20 17 40 31 46 31 5 0 19 15 31 33 l21 32 -5
-62 c-3 -50 0 -66 15 -85 24 -29 44 -19 74 37 32 61 64 112 124 202 54 81 78
103 49 46 -39 -77 -43 -179 -11 -230 11 -17 24 -23 51 -23 32 0 45 8 93 58 30
31 63 73 72 92 17 34 18 34 18 8 0 -14 12 -40 26 -57 22 -27 32 -31 75 -31 78
0 129 37 189 136 13 21 25 41 26 43 2 2 17 -8 34 -23 47 -39 117 -37 164 5 39
33 75 92 102 166 27 75 34 80 88 54 25 -11 63 -21 85 -21 33 0 44 7 85 50 25
27 46 55 46 61 0 7 16 36 35 64 40 58 65 137 65 207 0 92 -45 70 -55 -28 -4
-35 -11 -67 -16 -70 -5 -3 -9 -13 -9 -23 0 -11 -8 -29 -18 -40 -17 -22 -18
-21 -81 106 -48 97 -65 143 -70 188 -6 59 -7 60 -39 63 -27 3 -34 -1 -42 -23z
m110 -295 c48 -86 50 -134 8 -160 -44 -26 -70 -25 -102 5 -31 29 -32 40 -10
200 l17 121 37 -71 c20 -38 43 -81 50 -95z m-324 -163 c-13 -28 -40 -70 -60
-92 l-35 -40 20 74 c23 86 52 146 76 160 29 16 29 -40 -1 -102z m-1152 -203
c24 -9 21 -15 -34 -78 -27 -31 -50 -61 -50 -66 0 -4 -41 -45 -92 -90 -72 -63
-97 -80 -117 -78 -33 4 -39 34 -15 79 28 54 155 171 225 206 75 38 64 34 83
27z"/>
                <path fill="#006E1D" d="M1906 3555 c-28 -8 -63 -27 -82 -46 -30 -29 -34 -39 -34 -84 0 -74
21 -107 133 -215 155 -149 171 -204 75 -259 -38 -22 -55 -25 -148 -25 -117 0
-175 15 -298 79 -106 55 -122 73 -122 139 0 52 17 103 66 199 36 73 1 132 -75
124 -82 -9 -130 -68 -138 -170 -7 -86 8 -133 64 -197 27 -30 57 -73 68 -95 10
-22 26 -48 34 -57 17 -22 50 -23 57 -4 4 11 23 6 87 -24 45 -20 112 -45 148
-54 72 -18 254 -22 264 -6 3 6 16 10 29 10 13 0 31 9 41 20 10 11 24 20 31 20
22 0 64 76 64 115 0 58 -25 93 -154 220 -132 130 -148 157 -118 207 20 34 53
49 123 55 111 11 273 -53 366 -143 45 -43 53 -56 53 -87 0 -66 -51 -94 -114
-62 -48 25 -74 15 -61 -24 8 -26 55 -41 127 -41 54 0 62 3 89 32 25 28 29 40
29 90 0 56 -1 58 -59 121 -128 136 -373 209 -545 162z m-466 -145 c0 -6 -7
-25 -16 -42 -26 -50 -44 -120 -44 -173 l-1 -50 -16 35 c-21 45 -21 127 -1 165
29 54 78 95 78 65z"/>
                <path fill="#006E1D" d="M2864 2273 c-3 -10 -10 -26 -15 -35 -5 -10 -9 -25 -9 -33 0 -9 -12
-27 -27 -40 -25 -21 -28 -31 -31 -102 -3 -64 -1 -83 13 -96 23 -23 103 -23
112 -1 10 26 -11 49 -41 47 -14 -1 -26 2 -26 7 0 5 19 10 43 12 l42 3 3 62 c2
52 0 64 -16 74 -18 11 -18 13 1 50 10 22 17 46 13 54 -8 21 -55 19 -62 -2z m6
-167 c0 -8 -7 -16 -15 -20 -17 -6 -18 -4 -9 18 8 20 24 21 24 2z"/>
                <path fill="#006E1D" d="M2705 2264 c-9 -9 -19 -29 -22 -45 -3 -16 -9 -29 -14 -29 -12 0 -16
-32 -7 -57 4 -13 3 -56 -2 -95 -7 -60 -6 -76 6 -88 11 -11 19 -12 32 -4 13 8
19 33 26 98 7 70 11 86 25 86 27 0 42 20 30 42 -5 10 -16 18 -24 18 -9 0 -12
6 -9 15 4 8 17 15 30 15 29 0 41 24 24 45 -17 20 -74 19 -95 -1z"/>
                <path fill="#006E1D" d="M3331 2267 c-6 -8 -15 -58 -21 -113 -6 -54 -15 -119 -21 -143 -13
-60 -1 -70 74 -64 58 6 59 6 78 50 39 92 17 199 -40 191 -25 -4 -26 -2 -23 29
6 49 -23 79 -47 50z m69 -172 c0 -30 -20 -85 -31 -85 -10 0 -12 63 -3 97 8 28
34 19 34 -12z"/>
                <path fill="#006E1D" d="M2368 2245 c-17 -10 -31 -29 -37 -53 -15 -52 -14 -215 1 -230 17 -17
93 -15 108 3 19 23 4 45 -30 45 l-30 0 1 58 c2 94 10 116 43 122 37 6 55 32
37 54 -17 20 -57 20 -93 1z"/>
                <path fill="#006E1D" d="M3082 2244 c-20 -14 -23 -24 -21 -74 2 -46 -2 -63 -19 -85 -26 -33
-29 -96 -6 -119 18 -18 75 -21 91 -5 8 8 13 8 17 0 10 -15 56 -14 62 2 3 8
-10 41 -29 74 l-34 60 24 27 c31 37 32 99 1 120 -29 20 -58 20 -86 0z m45 -76
c-3 -8 -6 -5 -6 6 -1 11 2 17 5 13 3 -3 4 -12 1 -19z m-20 -154 c-9 -10 -27
15 -21 31 7 17 8 16 16 -5 5 -13 7 -24 5 -26z"/>
                <path fill="#006E1D" d="M2503 2177 c-33 -51 -44 -177 -19 -210 11 -15 25 -17 72 -15 l59 3
13 104 c7 58 11 110 8 117 -6 16 -123 16 -133 1z m60 -78 c7 -26 -3 -89 -14
-89 -16 0 -20 21 -13 65 7 48 18 58 27 24z"/>
                <path fill="#006E1D" d="M3521 2181 c-34 -21 -53 -148 -31 -206 9 -25 13 -26 72 -23 62 3 62
3 69 37 4 19 9 71 11 115 l3 81 -55 2 c-31 1 -62 -2 -69 -6z m59 -90 c0 -37
-16 -81 -30 -81 -13 0 -13 66 0 91 16 28 30 23 30 -10z"/>
                <path fill="#006E1D" d="M3686 2183 c-3 -3 -6 -24 -6 -46 0 -22 -5 -68 -12 -104 -10 -56 -10
-66 5 -81 32 -32 51 -5 61 87 7 75 10 81 31 81 27 0 48 22 43 47 -3 14 -14 18
-59 20 -31 1 -59 0 -63 -4z"/>
        </g>
</svg>
